<svg xmlns="http://www.w3.org/2000/svg" xmlns:xlink="http://www.w3.org/1999/xlink" width="1024" zoomAndPan="magnify" viewBox="0 0 768 225" height="300" preserveAspectRatio="xMidYMid meet" version="1.0"><defs><g/><clipPath id="080537686a"><path d="M 235 0.71875 L 300.417969 0.71875 L 300.417969 214.039062 L 235 214.039062 Z M 235 0.71875 " clip-rule="nonzero"/></clipPath><clipPath id="497612d48a"><path d="M 12.558594 0.71875 L 84 0.71875 L 84 214.039062 L 12.558594 214.039062 Z M 12.558594 0.71875 " clip-rule="nonzero"/></clipPath><clipPath id="1204fe040c"><path d="M 0.558594 0.71875 L 66 0.71875 L 66 214.039062 L 0.558594 214.039062 Z M 0.558594 0.71875 " clip-rule="nonzero"/></clipPath><clipPath id="81343f3d02"><rect x="0" width="72" y="0" height="215"/></clipPath><clipPath id="20c4ccd6e9"><rect x="0" width="745" y="0" height="219"/></clipPath></defs><rect x="-76.8" width="921.6" fill="#ffffff" y="-22.5" height="270" fill-opacity="1"/><rect x="-76.8" width="921.6" fill="#002642" y="-22.5" height="270" fill-opacity="1"/><g transform="matrix(1, 0, 0, 1, 10, 6)"><g clip-path="url(#20c4ccd6e9)"><g clip-path="url(#080537686a)"><path fill="#0deff8" d="M 241.140625 190.339844 L 235.21875 190.339844 L 235.21875 214.039062 L 241.140625 214.039062 C 260.773438 214.039062 276.6875 198.125 276.6875 178.492188 L 276.6875 137.023438 C 276.6875 133.292969 278.445312 129.78125 281.425781 127.542969 L 295.644531 116.878906 C 298.492188 114.746094 300.226562 111.445312 300.375 107.890625 C 300.523438 104.339844 299.066406 100.90625 296.40625 98.542969 L 280.667969 84.554688 C 278.136719 82.304688 276.6875 79.082031 276.6875 75.699219 L 276.6875 36.308594 C 276.6875 16.675781 260.773438 0.761719 241.140625 0.761719 L 235.21875 0.761719 L 235.21875 24.460938 L 241.140625 24.460938 C 247.6875 24.460938 252.992188 29.765625 252.992188 36.308594 L 252.992188 75.699219 C 252.992188 85.851562 257.335938 95.523438 264.925781 102.269531 L 269.824219 106.625 L 267.210938 108.585938 C 258.257812 115.300781 252.992188 125.832031 252.992188 137.023438 L 252.992188 178.492188 C 252.992188 185.035156 247.6875 190.339844 241.140625 190.339844 Z M 241.140625 190.339844 " fill-opacity="1" fill-rule="evenodd"/></g><g fill="#ffffff" fill-opacity="1"><g transform="translate(315.05482, 96.554494)"><g><path d="M 59.15625 -68.015625 L 59.15625 -58.640625 L 36.59375 -58.640625 L 36.59375 0 L 25.359375 0 L 25.359375 -58.640625 L 2.890625 -58.640625 L 2.890625 -68.015625 Z M 59.15625 -68.015625 "/></g></g></g><g fill="#ffffff" fill-opacity="1"><g transform="translate(384.82453, 96.554494)"><g><path d="M 64.203125 -68.015625 L 64.203125 0 L 53.078125 0 L 53.078125 -68.015625 Z M 20.921875 -68.015625 L 20.921875 0 L 9.796875 0 L 9.796875 -68.015625 Z M 58.75 -39.15625 L 58.75 -29.6875 L 15.359375 -29.6875 L 15.359375 -39.15625 Z M 58.75 -39.15625 "/></g></g></g><g fill="#ffffff" fill-opacity="1"><g transform="translate(466.548883, 96.554494)"><g><path d="M 20.921875 -68.015625 L 20.921875 0 L 9.796875 0 L 9.796875 -68.015625 Z M 20.921875 -68.015625 "/></g></g></g><g fill="#ffffff" fill-opacity="1"><g transform="translate(504.989223, 96.554494)"><g><path d="M 64.71875 0 L 52.96875 0 L 46.796875 -17.9375 L 19.484375 -17.9375 L 13.1875 0 L 1.75 0 L 26.59375 -68.015625 L 39.984375 -68.015625 Z M 22.359375 -26.796875 L 43.90625 -26.796875 L 33.1875 -58.640625 Z M 22.359375 -26.796875 "/></g></g></g><g fill="#ffffff" fill-opacity="1"><g transform="translate(579.190403, 96.554494)"><g><path d="M 36.484375 1.03125 C 30.367188 1.03125 25.023438 -0.359375 20.453125 -3.140625 C 15.890625 -5.921875 12.351562 -9.921875 9.84375 -15.140625 C 7.332031 -20.367188 6.078125 -26.660156 6.078125 -34.015625 C 6.078125 -41.222656 7.398438 -47.4375 10.046875 -52.65625 C 12.691406 -57.882812 16.398438 -61.921875 21.171875 -64.765625 C 25.953125 -67.617188 31.535156 -69.046875 37.921875 -69.046875 C 44.796875 -69.046875 50.394531 -67.707031 54.71875 -65.03125 C 59.050781 -62.351562 62.453125 -58.195312 64.921875 -52.5625 L 54.625 -47.921875 C 53.382812 -51.835938 51.335938 -54.753906 48.484375 -56.671875 C 45.640625 -58.597656 42.117188 -59.5625 37.921875 -59.5625 C 33.867188 -59.5625 30.332031 -58.546875 27.3125 -56.515625 C 24.289062 -54.492188 21.921875 -51.578125 20.203125 -47.765625 C 18.484375 -43.953125 17.625 -39.367188 17.625 -34.015625 C 17.625 -28.585938 18.410156 -23.945312 19.984375 -20.09375 C 21.566406 -16.25 23.867188 -13.328125 26.890625 -11.328125 C 29.921875 -9.335938 33.671875 -8.34375 38.140625 -8.34375 C 40.679688 -8.34375 43 -8.6875 45.09375 -9.375 C 47.1875 -10.0625 49.003906 -11.09375 50.546875 -12.46875 C 52.097656 -13.84375 53.300781 -15.507812 54.15625 -17.46875 C 55.019531 -19.425781 55.453125 -21.640625 55.453125 -24.109375 L 55.453125 -26.28125 L 36.59375 -26.28125 L 36.59375 -35.046875 L 65.34375 -35.046875 L 65.34375 0 L 57.203125 0 L 56.375 -14.21875 L 58.4375 -13.1875 C 56.851562 -8.726562 54.222656 -5.242188 50.546875 -2.734375 C 46.867188 -0.222656 42.179688 1.03125 36.484375 1.03125 Z M 36.484375 1.03125 "/></g></g></g><g fill="#ffffff" fill-opacity="1"><g transform="translate(659.47196, 96.554494)"><g><path d="M 37.40625 -69.046875 C 43.863281 -69.046875 49.425781 -67.632812 54.09375 -64.8125 C 58.769531 -62 62.378906 -57.984375 64.921875 -52.765625 C 67.472656 -47.546875 68.75 -41.296875 68.75 -34.015625 C 68.75 -26.796875 67.472656 -20.554688 64.921875 -15.296875 C 62.378906 -10.046875 58.769531 -6.007812 54.09375 -3.1875 C 49.425781 -0.375 43.863281 1.03125 37.40625 1.03125 C 30.945312 1.03125 25.378906 -0.375 20.703125 -3.1875 C 16.035156 -6.007812 12.429688 -10.046875 9.890625 -15.296875 C 7.347656 -20.554688 6.078125 -26.796875 6.078125 -34.015625 C 6.078125 -41.296875 7.347656 -47.546875 9.890625 -52.765625 C 12.429688 -57.984375 16.035156 -62 20.703125 -64.8125 C 25.378906 -67.632812 30.945312 -69.046875 37.40625 -69.046875 Z M 37.40625 -59.5625 C 33.289062 -59.5625 29.753906 -58.546875 26.796875 -56.515625 C 23.835938 -54.492188 21.566406 -51.59375 19.984375 -47.8125 C 18.410156 -44.039062 17.625 -39.441406 17.625 -34.015625 C 17.625 -28.648438 18.410156 -24.0625 19.984375 -20.25 C 21.566406 -16.4375 23.835938 -13.515625 26.796875 -11.484375 C 29.753906 -9.460938 33.289062 -8.453125 37.40625 -8.453125 C 41.53125 -8.453125 45.050781 -9.460938 47.96875 -11.484375 C 50.894531 -13.515625 53.164062 -16.4375 54.78125 -20.25 C 56.394531 -24.0625 57.203125 -28.648438 57.203125 -34.015625 C 57.203125 -39.441406 56.394531 -44.039062 54.78125 -47.8125 C 53.164062 -51.59375 50.894531 -54.492188 47.96875 -56.515625 C 45.050781 -58.546875 41.53125 -59.5625 37.40625 -59.5625 Z M 37.40625 -59.5625 "/></g></g></g><g fill="#ffffff" fill-opacity="1"><g transform="translate(315.05482, 184.500894)"><g><path d="M 63.484375 -68.015625 L 63.484375 -54.3125 L 41.953125 -54.3125 L 41.953125 0 L 24.21875 0 L 24.21875 -54.3125 L 2.578125 -54.3125 L 2.578125 -68.015625 Z M 63.484375 -68.015625 "/></g></g></g><g fill="#ffffff" fill-opacity="1"><g transform="translate(381.114487, 184.500894)"><g><path d="M 7.53125 0 L 7.53125 -68.015625 L 59.265625 -68.015625 L 59.265625 -54.3125 L 25.25 -54.3125 L 25.25 -40.5 L 52.359375 -40.5 L 52.359375 -27.625 L 25.25 -27.625 L 25.25 -13.703125 L 60.59375 -13.703125 L 60.59375 0 Z M 7.53125 0 "/></g></g><g transform="translate(444.906903, 184.500894)"><g><path d="M 85.03125 -68.015625 L 85.03125 0 L 69.359375 0 L 69.359375 -31.234375 L 69.875 -52.15625 L 69.671875 -52.15625 L 53.484375 0 L 39.15625 0 L 22.984375 -52.15625 L 22.78125 -52.15625 L 23.296875 -31.234375 L 23.296875 0 L 7.53125 0 L 7.53125 -68.015625 L 32.78125 -68.015625 L 42.984375 -33.390625 L 46.6875 -18.96875 L 46.890625 -18.96875 L 50.703125 -33.296875 L 60.8125 -68.015625 Z M 85.03125 -68.015625 "/></g></g></g><g fill="#ffffff" fill-opacity="1"><g transform="translate(537.452273, 184.500894)"><g><path d="M 38.140625 -68.015625 C 46.171875 -68.015625 52.453125 -66.019531 56.984375 -62.03125 C 61.523438 -58.050781 63.796875 -52.488281 63.796875 -45.34375 C 63.796875 -38.132812 61.523438 -32.550781 56.984375 -28.59375 C 52.453125 -24.644531 46.171875 -22.671875 38.140625 -22.671875 L 25.25 -22.671875 L 25.25 0 L 7.53125 0 L 7.53125 -68.015625 Z M 35.34375 -35.96875 C 38.851562 -35.96875 41.5 -36.738281 43.28125 -38.28125 C 45.070312 -39.832031 45.96875 -42.1875 45.96875 -45.34375 C 45.96875 -48.507812 45.070312 -50.863281 43.28125 -52.40625 C 41.5 -53.945312 38.851562 -54.71875 35.34375 -54.71875 L 25.25 -54.71875 L 25.25 -35.96875 Z M 35.34375 -35.96875 "/></g></g></g><g fill="#ffffff" fill-opacity="1"><g transform="translate(605.057791, 184.500894)"><g><path d="M 25.25 -13.703125 L 58.125 -13.703125 L 58.125 0 L 7.53125 0 L 7.53125 -68.015625 L 25.25 -68.015625 Z M 25.25 -13.703125 "/></g></g></g><g fill="#ffffff" fill-opacity="1"><g transform="translate(665.861535, 184.500894)"><g><path d="M 7.53125 0 L 7.53125 -68.015625 L 59.265625 -68.015625 L 59.265625 -54.3125 L 25.25 -54.3125 L 25.25 -40.5 L 52.359375 -40.5 L 52.359375 -27.625 L 25.25 -27.625 L 25.25 -13.703125 L 60.59375 -13.703125 L 60.59375 0 Z M 7.53125 0 "/></g></g></g><g clip-path="url(#497612d48a)"><g transform="matrix(1, 0, 0, 1, 12, -0.000000000000008882)"><g clip-path="url(#81343f3d02)"><g clip-path="url(#1204fe040c)"><path fill="#f52ec0" d="M 59.773438 190.339844 L 65.699219 190.339844 L 65.699219 214.039062 L 59.773438 214.039062 C 40.144531 214.039062 24.230469 198.125 24.230469 178.492188 L 24.230469 137.023438 C 24.230469 133.292969 22.472656 129.78125 19.488281 127.542969 L 5.269531 116.878906 C 2.425781 114.746094 0.691406 111.445312 0.542969 107.890625 C 0.394531 104.339844 1.851562 100.90625 4.507812 98.542969 L 20.25 84.554688 C 22.78125 82.304688 24.230469 79.082031 24.230469 75.699219 L 24.230469 36.308594 C 24.230469 16.675781 40.144531 0.761719 59.773438 0.761719 L 65.699219 0.761719 L 65.699219 24.460938 L 59.773438 24.460938 C 53.230469 24.460938 47.925781 29.765625 47.925781 36.308594 L 47.925781 75.699219 C 47.925781 85.851562 43.582031 95.523438 35.992188 102.269531 L 31.09375 106.625 L 33.707031 108.585938 C 42.660156 115.300781 47.925781 125.832031 47.925781 137.023438 L 47.925781 178.492188 C 47.925781 185.035156 53.230469 190.339844 59.773438 190.339844 Z M 59.773438 190.339844 " fill-opacity="1" fill-rule="evenodd"/></g></g></g></g><g fill="#ffffff" fill-opacity="1"><g transform="translate(60.326911, 177.527378)"><g><path d="M 117.890625 -126.3125 L 117.890625 -100.859375 L 77.890625 -100.859375 L 77.890625 0 L 44.96875 0 L 44.96875 -100.859375 L 4.78125 -100.859375 L 4.78125 -126.3125 Z M 117.890625 -126.3125 "/></g></g></g><g fill="#ffffff" fill-opacity="1"><g transform="translate(127.914374, 177.527378)"><g><path d="M 117.890625 -126.3125 L 117.890625 -100.859375 L 77.890625 -100.859375 L 77.890625 0 L 44.96875 0 L 44.96875 -100.859375 L 4.78125 -100.859375 L 4.78125 -126.3125 Z M 117.890625 -126.3125 "/></g></g></g></g></g></svg>