<svg xmlns="http://www.w3.org/2000/svg" xmlns:xlink="http://www.w3.org/1999/xlink" width="500" zoomAndPan="magnify" viewBox="0 0 375 374.999991" height="500" preserveAspectRatio="xMidYMid meet" version="1.0"><defs><g/><clipPath id="8c17753861"><path d="M 24 0 L 351 0 C 357.363281 0 363.46875 2.527344 367.96875 7.03125 C 372.472656 11.53125 375 17.636719 375 24 L 375 351 C 375 357.363281 372.472656 363.46875 367.96875 367.96875 C 363.46875 372.472656 357.363281 375 351 375 L 24 375 C 17.636719 375 11.53125 372.472656 7.03125 367.96875 C 2.527344 363.46875 0 357.363281 0 351 L 0 24 C 0 17.636719 2.527344 11.53125 7.03125 7.03125 C 11.53125 2.527344 17.636719 0 24 0 Z M 24 0 " clip-rule="nonzero"/></clipPath><clipPath id="d9e284be1b"><path d="M 0 0 L 375 0 L 375 375 L 0 375 Z M 0 0 " clip-rule="nonzero"/></clipPath><clipPath id="caee7e693b"><path d="M 24 0 L 351 0 C 357.363281 0 363.46875 2.527344 367.96875 7.03125 C 372.472656 11.53125 375 17.636719 375 24 L 375 351 C 375 357.363281 372.472656 363.46875 367.96875 367.96875 C 363.46875 372.472656 357.363281 375 351 375 L 24 375 C 17.636719 375 11.53125 372.472656 7.03125 367.96875 C 2.527344 363.46875 0 357.363281 0 351 L 0 24 C 0 17.636719 2.527344 11.53125 7.03125 7.03125 C 11.53125 2.527344 17.636719 0 24 0 Z M 24 0 " clip-rule="nonzero"/></clipPath><clipPath id="869b4cf0f9"><rect x="0" width="375" y="0" height="375"/></clipPath><clipPath id="bc4be2e0de"><path d="M 280 54.441406 L 358.078125 54.441406 L 358.078125 307.191406 L 280 307.191406 Z M 280 54.441406 " clip-rule="nonzero"/></clipPath><clipPath id="3f4277dcf0"><path d="M 16.542969 54.441406 L 102 54.441406 L 102 307.191406 L 16.542969 307.191406 Z M 16.542969 54.441406 " clip-rule="nonzero"/></clipPath><clipPath id="2d94ffa8ea"><path d="M 0.917969 0.480469 L 79 0.480469 L 79 253.191406 L 0.917969 253.191406 Z M 0.917969 0.480469 " clip-rule="nonzero"/></clipPath><clipPath id="d156f93473"><rect x="0" width="86" y="0" height="254"/></clipPath></defs><g clip-path="url(#8c17753861)"><g transform="matrix(1, 0, 0, 1, 0, 0)"><g clip-path="url(#869b4cf0f9)"><g clip-path="url(#d9e284be1b)"><g clip-path="url(#caee7e693b)"><rect x="-82.5" width="540" fill="#002642" height="539.999987" y="-82.499998" fill-opacity="1"/></g></g></g></g></g><g clip-path="url(#bc4be2e0de)"><path fill="#0deff8" d="M 287.835938 279.113281 L 280.816406 279.113281 L 280.816406 307.191406 L 287.835938 307.191406 C 311.097656 307.191406 329.953125 288.335938 329.953125 265.074219 L 329.953125 215.9375 C 329.953125 211.519531 332.03125 207.359375 335.566406 204.707031 L 352.414062 192.070312 C 355.785156 189.542969 357.84375 185.632812 358.019531 181.421875 C 358.195312 177.210938 356.46875 173.144531 353.316406 170.34375 L 334.664062 153.769531 C 331.667969 151.105469 329.953125 147.285156 329.953125 143.277344 L 329.953125 96.605469 C 329.953125 73.34375 311.097656 54.488281 287.835938 54.488281 L 280.816406 54.488281 L 280.816406 82.566406 L 287.835938 82.566406 C 295.589844 82.566406 301.875 88.851562 301.875 96.605469 L 301.875 143.277344 C 301.875 155.308594 307.019531 166.765625 316.015625 174.757812 L 321.820312 179.917969 L 318.722656 182.242188 C 308.117188 190.199219 301.875 202.679688 301.875 215.9375 L 301.875 265.074219 C 301.875 272.828125 295.589844 279.113281 287.835938 279.113281 Z M 287.835938 279.113281 " fill-opacity="1" fill-rule="evenodd"/></g><g clip-path="url(#3f4277dcf0)"><g transform="matrix(1, 0, 0, 1, 16, 54)"><g clip-path="url(#d156f93473)"><g clip-path="url(#2d94ffa8ea)"><path fill="#f52ec0" d="M 71.160156 225.113281 L 78.179688 225.113281 L 78.179688 253.191406 L 71.160156 253.191406 C 47.898438 253.191406 29.042969 234.335938 29.042969 211.074219 L 29.042969 161.9375 C 29.042969 157.519531 26.960938 153.359375 23.425781 150.707031 L 6.578125 138.070312 C 3.207031 135.542969 1.148438 131.632812 0.976562 127.421875 C 0.800781 123.210938 2.527344 119.144531 5.675781 116.34375 L 24.328125 99.769531 C 27.324219 97.105469 29.042969 93.285156 29.042969 89.277344 L 29.042969 42.605469 C 29.042969 19.34375 47.898438 0.488281 71.160156 0.488281 L 78.179688 0.488281 L 78.179688 28.566406 L 71.160156 28.566406 C 63.40625 28.566406 57.121094 34.851562 57.121094 42.605469 L 57.121094 89.277344 C 57.121094 101.308594 51.972656 112.765625 42.980469 120.757812 L 37.171875 125.917969 L 40.273438 128.242188 C 50.878906 136.199219 57.121094 148.679688 57.121094 161.9375 L 57.121094 211.074219 C 57.121094 218.828125 63.40625 225.113281 71.160156 225.113281 Z M 71.160156 225.113281 " fill-opacity="1" fill-rule="evenodd"/></g></g></g></g><g fill="#ffffff" fill-opacity="1"><g transform="translate(79.531502, 272.357399)"><g><path d="M 49.71875 0 L 49.71875 -123.421875 L 3.265625 -123.421875 L 3.265625 -155.25 L 133.4375 -155.25 L 133.4375 -123.421875 L 87 -123.421875 L 87 0 Z M 49.71875 0 "/></g></g></g><g fill="#ffffff" fill-opacity="1"><g transform="translate(159.613955, 272.357399)"><g><path d="M 49.71875 0 L 49.71875 -123.421875 L 3.265625 -123.421875 L 3.265625 -155.25 L 133.4375 -155.25 L 133.4375 -123.421875 L 87 -123.421875 L 87 0 Z M 49.71875 0 "/></g></g></g></svg>